<svg width="123" height="26" viewBox="0 0 123 26" fill="none" xmlns="http://www.w3.org/2000/svg"><path d="M3.643.376v7.26c.663-.663 1.38-1.16 2.151-1.492a6.192 6.192 0 012.474-.498c1.909 0 3.531.722 4.866 2.165 1.336 1.443 2.003 3.293 2.003 5.552 0 2.178-.69 4.002-2.07 5.471-1.38 1.461-3.016 2.192-4.907 2.192a6.175 6.175 0 01-2.352-.444c-.726-.305-1.448-.797-2.165-1.479v1.546H0V.376h3.643zm3.859 8.658c-1.157 0-2.116.394-2.877 1.183-.762.789-1.143 1.82-1.143 3.092 0 1.3.38 2.353 1.143 3.16.761.797 1.72 1.196 2.877 1.196 1.12 0 2.06-.408 2.823-1.223.77-.816 1.156-1.856 1.156-3.12 0-1.254-.377-2.28-1.13-3.078-.752-.807-1.702-1.21-2.85-1.21zM19.614 0c.646 0 1.197.233 1.654.7.466.465.699 1.03.699 1.693 0 .654-.229 1.214-.686 1.68a2.238 2.238 0 01-1.64.686 2.291 2.291 0 01-1.68-.699 2.392 2.392 0 01-.686-1.72c0-.646.229-1.197.686-1.654A2.254 2.254 0 0119.614 0zm-1.841 6.023h3.683v14.626h-3.683V6.023zM25.234.632h3.656v5.39h2.178v3.16H28.89v11.467h-3.656V9.182h-1.882v-3.16h1.882V.633zM47.362 8.98l-3.052 1.68c-.573-.6-1.143-1.016-1.707-1.25-.556-.232-1.21-.349-1.963-.349-1.371 0-2.483.412-3.334 1.237-.842.815-1.264 1.864-1.264 3.146 0 1.245.408 2.263 1.224 3.051.815.789 1.886 1.183 3.213 1.183 1.64 0 2.917-.56 3.831-1.68l2.89 1.976c-1.568 2.035-3.782 3.052-6.64 3.052-2.573 0-4.59-.762-6.05-2.286-1.452-1.523-2.178-3.307-2.178-5.35 0-1.416.354-2.72 1.062-3.912.708-1.192 1.694-2.129 2.958-2.81 1.272-.681 2.693-1.022 4.261-1.022 1.452 0 2.756.292 3.912.874a7.37 7.37 0 012.837 2.46zm10.19-3.334c1.38 0 2.675.345 3.885 1.035a7.465 7.465 0 012.85 2.81 7.55 7.55 0 011.022 3.832c0 1.38-.345 2.67-1.035 3.871a7.421 7.421 0 01-2.796 2.824c-1.183.672-2.487 1.008-3.912 1.008-2.098 0-3.89-.744-5.378-2.232-1.479-1.497-2.218-3.311-2.218-5.444 0-2.286.838-4.19 2.514-5.714 1.47-1.326 3.16-1.99 5.068-1.99zm.054 3.455c-1.138 0-2.088.4-2.85 1.197-.753.788-1.13 1.801-1.13 3.038 0 1.273.373 2.303 1.117 3.092.752.789 1.702 1.183 2.85 1.183 1.147 0 2.101-.399 2.863-1.196.762-.798 1.143-1.824 1.143-3.079 0-1.255-.377-2.272-1.13-3.052-.743-.788-1.698-1.183-2.863-1.183zM69.76 0c.644 0 1.195.233 1.653.7.466.465.699 1.03.699 1.693 0 .654-.229 1.214-.686 1.68a2.238 2.238 0 01-1.64.686 2.291 2.291 0 01-1.68-.699 2.392 2.392 0 01-.686-1.72c0-.646.228-1.197.686-1.654A2.254 2.254 0 0169.759 0zm-1.843 6.023h3.684v14.626h-3.684V6.023zm7.018 0h3.656v1.492c.834-.7 1.587-1.183 2.26-1.452a5.471 5.471 0 012.083-.417c1.452 0 2.684.507 3.697 1.52.851.86 1.277 2.133 1.277 3.817v9.666h-3.63v-6.412c0-1.748-.08-2.909-.242-3.482-.152-.574-.425-1.008-.82-1.304-.385-.305-.865-.457-1.438-.457a2.72 2.72 0 00-1.923.753c-.529.493-.896 1.178-1.102 2.056-.108.458-.162 1.448-.162 2.972v5.874h-3.656V6.023z" fill="#E08700"/><path d="M91.914.632h3.657v5.39h2.178v3.16H95.57v11.467h-3.657V9.182h-1.882v-3.16h1.882V.633zm6.951 5.391h3.145v1.842c.341-.726.794-1.278 1.358-1.654a3.276 3.276 0 011.855-.565c.475 0 .973.126 1.493.377l-1.143 3.159c-.43-.215-.784-.323-1.062-.323-.565 0-1.044.35-1.439 1.049-.385.699-.578 2.07-.578 4.114l.014.712v5.915h-3.643V6.023zm8.052 0h3.751l3.805 9.182 4.194-9.182h3.764L113.263 26h-3.791l3.011-6.44-5.566-13.537z" fill="#fff"/></svg>